<?xml version="1.0" encoding="utf-8"?>
<!-- Generator: Adobe Illustrator 24.0.0, SVG Export Plug-In . SVG Version: 6.00 Build 0)  -->
<svg version="1.1" id="Layer_1" xmlns="http://www.w3.org/2000/svg" xmlns:xlink="http://www.w3.org/1999/xlink" x="0px" y="0px"
	 viewBox="0 0 2000 1500" style="enable-background:new 0 0 2000 1500;" xml:space="preserve">
<style type="text/css">
	.st0{fill:url(#SVGID_1_);}
	.st1{fill:url(#SVGID_2_);}
	.st2{fill:url(#SVGID_3_);}
	.st3{fill:url(#SVGID_4_);}
	.st4{fill:url(#SVGID_5_);}
	.st5{fill:url(#SVGID_6_);}
	.st6{fill:url(#SVGID_7_);}
	.st7{fill:url(#SVGID_8_);}
	.st8{fill:url(#SVGID_9_);}
	.st9{fill:url(#SVGID_10_);}
	.st10{fill:url(#SVGID_11_);}
	.st11{fill:#0E0E9F;}
	.st12{fill:#2A0303;}
	.st13{fill:#FFFFFF;}
	.st14{fill:#EF7500;}
	.st15{fill:#FE9900;}
	.st16{fill:#440000;}
	.st17{fill:#680000;}
	.st18{fill:#C33100;}
</style>
<g>
	<g>
		<g>
			<linearGradient id="SVGID_1_" gradientUnits="userSpaceOnUse" x1="604.2983" y1="1035.2635" x2="608.2146" y2="1201.7036">
				<stop  offset="0" style="stop-color:#B50368"/>
				<stop  offset="1" style="stop-color:#370196"/>
			</linearGradient>
			<path class="st0" d="M664.7,1205.7c-8.5,5.2-17.7,9.3-27.5,12.3c-9.8,2.9-20.3,4.4-31.4,4.4c-17,0-32.4-3.4-46.3-10.1
				c-13.9-6.8-25.7-15.6-35.7-26.5c-9.9-10.9-17.6-23.4-23.1-37.6c-5.5-14.2-8.2-28.7-8.2-43.5c0-15.5,2.9-30.3,8.7-44.5
				c5.8-14.2,13.7-26.7,23.9-37.6c10.1-10.9,22.2-19.6,36.2-26c14-6.4,29.1-9.7,45.5-9.7c16.8,0,32.1,3.4,46,10.3
				c13.8,6.9,25.7,15.9,35.5,27c9.8,11.1,17.4,23.8,22.9,37.9c5.4,14.2,8.2,28.6,8.2,43.2c0,15-2.7,29.4-8,43.2
				c-5.3,13.7-12.8,26-22.4,36.6l31.7,35.7h-42.5L664.7,1205.7z M606.1,1182.5c5.9,0,11.4-0.7,16.5-2.1c5.1-1.4,9.9-3.3,14.2-5.7
				l-35.3-39.9h42.5l16,18c4.4-7,7.7-14.6,10.1-22.9c2.4-8.3,3.6-16.7,3.6-25.2c0-10-1.6-19.7-4.7-29.1c-3.2-9.4-7.6-17.7-13.4-24.9
				c-5.8-7.2-12.9-13-21.3-17.3c-8.4-4.4-17.8-6.5-28.3-6.5c-10.9,0-20.6,2.2-29.1,6.7c-8.5,4.5-15.6,10.4-21.3,17.8
				c-5.7,7.4-10,15.8-12.9,25c-2.9,9.3-4.4,18.7-4.4,28.3c0,10,1.5,19.7,4.6,29.1c3.1,9.4,7.5,17.7,13.2,24.9
				c5.8,7.2,12.9,13,21.3,17.3C585.9,1180.3,595.4,1182.5,606.1,1182.5z"/>
			<linearGradient id="SVGID_2_" gradientUnits="userSpaceOnUse" x1="829.8282" y1="1029.957" x2="833.7444" y2="1196.397">
				<stop  offset="0" style="stop-color:#B50368"/>
				<stop  offset="1" style="stop-color:#370196"/>
			</linearGradient>
			<path class="st1" d="M801.7,1224.1c-17.7,0-31.1-5.7-40.2-17c-9.2-11.3-13.7-28.1-13.7-50.4v-107.3h43.8v97.8
				c0,26.4,9.5,39.6,28.5,39.6c8.5,0,16.7-2.6,24.7-7.7c8-5.1,14.4-12.9,19.5-23.4v-106.3h43.8v121c0,4.6,0.8,7.9,2.5,9.8
				c1.6,2,4.3,3.1,8,3.3v37.3c-4.4,0.9-8,1.4-11,1.6c-2.9,0.2-5.6,0.3-8,0.3c-7.9,0-14.2-1.8-19.1-5.4c-4.9-3.6-7.8-8.6-8.7-14.9
				l-1-13.7c-7.6,11.8-17.5,20.6-29.4,26.5C829.3,1221.1,816.1,1224.1,801.7,1224.1z"/>
			<linearGradient id="SVGID_3_" gradientUnits="userSpaceOnUse" x1="1037.1036" y1="1025.08" x2="1041.0198" y2="1191.52">
				<stop  offset="0" style="stop-color:#B50368"/>
				<stop  offset="1" style="stop-color:#370196"/>
			</linearGradient>
			<path class="st2" d="M1021.9,988.5h39.9l88.3,232.3h-46.5l-21.6-57.9H1001l-21.3,57.9h-46.5L1021.9,988.5z M1073.9,1131.1
				l-32.1-91.3l-33.4,91.3H1073.9z"/>
			<linearGradient id="SVGID_4_" gradientUnits="userSpaceOnUse" x1="1237.7825" y1="1020.3581" x2="1241.6987" y2="1186.7981">
				<stop  offset="0" style="stop-color:#B50368"/>
				<stop  offset="1" style="stop-color:#370196"/>
			</linearGradient>
			<path class="st3" d="M1156.1,1135.1c0-12,2.1-23.3,6.2-34c4.1-10.7,10.1-20.1,18-28.1c7.9-8.1,17.3-14.5,28.5-19.3
				c11.1-4.8,23.7-7.2,37.6-7.2c18.8,0,34.7,4,47.9,12.1c13.2,8.1,23.1,18.6,29.6,31.7l-42.9,13.1c-3.7-6.3-8.6-11.2-14.7-14.6
				c-6.1-3.4-12.9-5.1-20.3-5.1c-6.3,0-12.2,1.3-17.7,3.8c-5.5,2.5-10.2,6-14.2,10.5c-4,4.5-7.2,9.9-9.5,16.2
				c-2.3,6.3-3.4,13.3-3.4,20.9c0,7.6,1.2,14.6,3.6,20.9c2.4,6.3,5.6,11.8,9.7,16.4c4,4.6,8.8,8.1,14.2,10.6
				c5.4,2.5,11.2,3.8,17.3,3.8c7.9,0,15.1-2,21.8-5.9c6.7-3.9,11.3-8.7,13.9-14.4l42.9,13.1c-5.9,13.1-15.6,23.8-29.1,32.1
				c-13.5,8.3-29.8,12.4-48.7,12.4c-14,0-26.5-2.4-37.6-7.2c-11.1-4.8-20.6-11.3-28.5-19.5c-7.9-8.2-13.9-17.7-18.2-28.5
				C1158.2,1158.1,1156.1,1146.8,1156.1,1135.1z"/>
			<linearGradient id="SVGID_5_" gradientUnits="userSpaceOnUse" x1="1420.5645" y1="1016.0573" x2="1424.4806" y2="1182.4973">
				<stop  offset="0" style="stop-color:#B50368"/>
				<stop  offset="1" style="stop-color:#370196"/>
			</linearGradient>
			<path class="st4" d="M1338.9,1135.1c0-12,2.1-23.3,6.2-34c4.1-10.7,10.1-20.1,18-28.1c7.9-8.1,17.3-14.5,28.5-19.3
				c11.1-4.8,23.7-7.2,37.6-7.2c18.8,0,34.7,4,47.9,12.1c13.2,8.1,23.1,18.6,29.6,31.7l-42.9,13.1c-3.7-6.3-8.6-11.2-14.7-14.6
				c-6.1-3.4-12.9-5.1-20.3-5.1c-6.3,0-12.2,1.3-17.7,3.8c-5.5,2.5-10.2,6-14.2,10.5c-4,4.5-7.2,9.9-9.5,16.2
				c-2.3,6.3-3.4,13.3-3.4,20.9c0,7.6,1.2,14.6,3.6,20.9c2.4,6.3,5.6,11.8,9.7,16.4c4,4.6,8.8,8.1,14.2,10.6
				c5.4,2.5,11.2,3.8,17.3,3.8c7.9,0,15.1-2,21.8-5.9c6.7-3.9,11.3-8.7,13.9-14.4l42.9,13.1c-5.9,13.1-15.6,23.8-29.1,32.1
				c-13.5,8.3-29.8,12.4-48.7,12.4c-14,0-26.5-2.4-37.6-7.2c-11.1-4.8-20.6-11.3-28.5-19.5c-7.9-8.2-13.9-17.7-18.2-28.5
				C1341.1,1158.1,1338.9,1146.8,1338.9,1135.1z"/>
		</g>
	</g>
	<g>
		<g>
			<g>
				<linearGradient id="SVGID_6_" gradientUnits="userSpaceOnUse" x1="1033.3412" y1="953.4964" x2="870.6948" y2="798.8819">
					<stop  offset="0" style="stop-color:#FE9900"/>
					<stop  offset="1" style="stop-color:#ED4536"/>
				</linearGradient>
				<path class="st5" d="M1043.9,915.9c-4.2-3.7-12.2-6.6-22.1-9.4c0.5-0.2,0.7-0.2,0.7-0.2s-0.8-0.4-2.2-0.2c0,0-0.1,0-0.1,0
					c-6.2-1.7-13.1-3.3-20.3-5l0,0c0,0-0.4-0.2-1.2-0.3c-0.4-0.1-0.9-0.2-1.3-0.3c-1.8-0.5-3.6-0.9-5.5-1.3
					c-0.6-0.1-1.2-0.3-1.9-0.4c-0.8-0.2-1.5-0.4-2.3-0.5c-7.2-1.7-15.2-3.5-22.9-5.4c0,0,0,0,0,0s0,0,0,0
					c-17.9-4.4-34.6-9.5-38.9-16.6c-1.5-2.5-2.7-5.1-3.6-7.7c0,0,0-0.1,0-0.1c-0.2-0.5-0.3-1-0.5-1.5c0-0.2-0.1-0.3-0.1-0.5
					c-0.1-0.4-0.2-0.9-0.3-1.3c-0.1-0.3-0.1-0.5-0.2-0.8c-0.1-0.4-0.2-0.8-0.2-1.2c-0.1-0.3-0.1-0.6-0.2-0.9
					c-0.1-0.5-0.1-0.9-0.2-1.4c0-0.3-0.1-0.5-0.1-0.8c-0.6-6,0-42.2,1.6-51.2l2.3-38.4c0-0.1,0.1-0.3,0.1-0.4
					c0.2-0.7,0.4-1.4,0.6-2.1c0-0.1,0-0.1,0.1-0.2c1.4-4.4,2.7-7.9,3.9-10.3c0,0,0,0,0-0.1c0.2-0.4,0.3-0.7,0.5-1
					c0-0.1,0.1-0.1,0.1-0.2c0.1-0.3,0.3-0.6,0.4-0.8c0-0.1,0.1-0.1,0.1-0.2c0.1-0.2,0.2-0.4,0.3-0.6c0-0.1,0.1-0.1,0.1-0.2
					c0.1-0.2,0.2-0.3,0.3-0.5c0-0.1,0.1-0.1,0.1-0.2c0.1-0.1,0.1-0.2,0.2-0.3c0-0.1,0.1-0.1,0.1-0.1c0-0.1,0.1-0.1,0.1-0.2
					c0-0.1,0.1-0.1,0.1-0.1s-0.6-4.4-0.8-7c0,0-5.6,6.6-7,11c0,0-5.3-6.7-8-12.3c0,0-3.6,8-5.5,10.3c-1.9,2.3-3-9.9-3-9.9
					s-5.5,7-9.5,11.4c0,0,1,65.7,2.6,88.1c0.9,11.8,2.9,15.1-1.4,20.9c-0.3,0.4-0.6,0.8-0.9,1.2c0,0,0,0,0,0s0,0,0,0
					c-3.8,5-8,10.4-5.8,15.2c0,0,0,0,0,0s0,0,0,0c0.2,0.4,0.4,0.8,0.6,1.2c0,0-13.2,4.2-16.6,9.7c-3.3,5.5-3.3,8.6-0.6,8.1
					c2.7-0.6,10.2-1.4,9.9,8.2c-0.2,7.4,0.7,14.4,8.3,21.9c0,0,0,0,0,0s0,0,0,0c2.3,2.3,5.3,4.7,9.1,7.2c9.9,6.4,23.4,14.5,35,22.1
					c0,0,0,0,0,0s0,0,0,0c7.1,4.6,13.4,9.1,18,13c1.9,1.6,3.7,3.1,5.4,4.3c0,0,0,0,0,0s0,0,0,0c9.4,6.7,16.2,7.4,13.4-1.7
					c0,0,8.1-25.8,38.3-23.6c0,0,5.5,5,10.8,4.3c5.3-0.7,0.4-7.9,0.4-7.9s5.6-17,21.6-16.3c0,0,3.5,2.9,7.4,1.9
					C1057.3,933.2,1052.4,923.3,1043.9,915.9z"/>
				<linearGradient id="SVGID_7_" gradientUnits="userSpaceOnUse" x1="1117.0099" y1="888.9821" x2="954.3635" y2="734.3676">
					<stop  offset="0" style="stop-color:#FE9900"/>
					<stop  offset="1" style="stop-color:#ED4536"/>
				</linearGradient>
				<path class="st6" d="M1072.3,818.6c0,0-5.4,4.7-9.1,6.7c-1.1,0.6-1.2-6.7-1.2-6.7s-5.2,3.7-8.3,5.8c-1.7,1.2-1.9-3.3-1.9-3.3
					s-1,0.6-2.3,1.9c0,0-0.1,1.5-0.1,4c0,0,0,0,0,0s0,0,0,0c-0.2,6.3-0.7,18.7-1.2,25c-0.6,8.6-3.6,14.7-9.8,18.4
					c-6.2,3.7-3.7,10.2-3.7,10.2s-11.1,4.8-11.4,10.9c-0.3,6.2,5.3,2.6,12.1,3.4c0.5,0.1,1,0.1,1.5,0.3c0,0,0,0,0,0s0,0,0,0
					c2.6,0.6,5.9,1.8,10.2,3.6c0,0,0,0,0,0s0,0,0,0c7.5,3.2,17.9,8.1,32.7,14.4c7.7,3.3,15.2,6.1,22.1,8.7c0,0.4,0,0.7,0,0.7
					s0.1-0.2,0.2-0.6c10.1,3.7,19.2,6.6,26.2,9c0,0.1,0,0.2,0,0.2s0-0.1,0.1-0.2c3.7,1.3,6.8,2.4,9.2,3.5
					c10.1,4.5,12.1,8.4,17.7,6.5c5.6-1.9-1.6-9.8-1.6-9.8s9.4-21.9,35.1-24c0,0,10.8,6.3,14.4,4.2c3.5-2.1-1.3-10.9-8-13.8
					c0,0,0,0,0,0s0,0-0.1,0c-0.1,0-0.2-0.1-0.3-0.1c0,0,0.9-6.8,6.9-9.8c0,0,5.8,0.7,7.3-2.7c0.1-0.1,0.1-0.3,0.1-0.4
					c0,0,0-0.1,0-0.1c0-0.1,0-0.3,0-0.4c0,0,0-0.1,0-0.1c0-0.2-0.1-0.3-0.2-0.5c0,0,0-0.1-0.1-0.1c-0.1-0.1-0.2-0.3-0.3-0.4
					c0,0-0.1-0.1-0.1-0.1c-0.1-0.2-0.3-0.4-0.5-0.6c0,0-0.1-0.1-0.1-0.1c-0.2-0.2-0.3-0.3-0.5-0.5c-0.1-0.1-0.1-0.1-0.2-0.2
					c-0.2-0.2-0.5-0.4-0.8-0.6c0,0,0,0,0,0c-0.3-0.2-0.6-0.4-0.9-0.6c-0.1-0.1-0.2-0.1-0.3-0.2c-0.3-0.2-0.6-0.4-0.9-0.5
					c-0.1,0-0.2-0.1-0.2-0.1c-0.4-0.2-0.8-0.4-1.2-0.6c-0.2-0.1-0.3-0.2-0.5-0.2c-0.3-0.1-0.6-0.3-0.9-0.4c-0.2-0.1-0.4-0.2-0.6-0.3
					c-0.4-0.2-0.9-0.4-1.3-0.6c-0.3-0.1-0.6-0.2-0.9-0.3c-0.2-0.1-0.5-0.2-0.7-0.3c-0.3-0.1-0.7-0.3-1.1-0.4
					c-0.1-0.1-0.3-0.1-0.4-0.2c-0.9-0.3-1.8-0.6-2.7-0.9c0,0,0,0,0,0c-1-0.3-2.1-0.6-3.3-1c0.1,0,0.3,0.1,0.6,0.2
					c-5.6-1.5-12.6-2.9-21.1-4c-19.7-2.4-46.6-2.8-65-2.8c0-0.4-0.1-0.6-0.1-0.6s0,0.2,0,0.6c-8.5,0-15.2,0.2-18.5,0.3
					c-10.5,0.4-10.9-2.7-19-3.3c0,0-1-10.9,1.8-23.6c0.1-0.4,0.2-0.9,0.3-1.3c0.1-0.2,0.1-0.4,0.2-0.7c0.1-0.4,0.2-0.9,0.3-1.3
					c0.1-0.2,0.1-0.5,0.2-0.7c0.1-0.4,0.3-0.9,0.4-1.3c0.1-0.2,0.1-0.4,0.2-0.6c0.2-0.6,0.4-1.2,0.6-1.9c0.1-0.2,0.2-0.5,0.3-0.7
					c0.1-0.4,0.3-0.8,0.4-1.2c0.1-0.3,0.2-0.6,0.4-0.9c0.1-0.3,0.3-0.7,0.4-1c0.1-0.3,0.3-0.6,0.4-0.9c0.2-0.4,0.3-0.7,0.5-1.1
					c0.1-0.3,0.3-0.5,0.4-0.8c0.3-0.6,0.6-1.2,1-1.8l-0.7-13.4"/>
			</g>
			<linearGradient id="SVGID_8_" gradientUnits="userSpaceOnUse" x1="892.968" y1="763.8452" x2="1095.6432" y2="763.8452">
				<stop  offset="0" style="stop-color:#FE9900"/>
				<stop  offset="1" style="stop-color:#ED4536"/>
			</linearGradient>
			<path class="st7" d="M1062.6,664.7c-21.5,3.4-44.5,5.3-68.3,5.3c-23.8,0-46.8-1.8-68.3-5.3c-18.3,38.1-33,75.6-33,97
				c0,26.6,10.3,50.9,27.1,68.9c6.4,6.8,13.7,12.7,21.7,17.5l0.1,0c15.2,9.2,32.6,14.5,50.4,14.8c0.7,0,1.4,0,2.1,0
				c0.6,0,1.3,0,1.9,0c16.4-0.3,32.4-4.8,46.7-12.6l0.3-0.2c7.8-4.3,15.2-9.5,21.6-15.7c19-18.4,30.9-44.2,30.9-72.8
				C1095.6,740.3,1080.9,702.8,1062.6,664.7z"/>
		</g>
		<linearGradient id="SVGID_9_" gradientUnits="userSpaceOnUse" x1="908.8849" y1="505.454" x2="1076.2303" y2="505.454">
			<stop  offset="0" style="stop-color:#B50368"/>
			<stop  offset="1" style="stop-color:#370196"/>
		</linearGradient>
		<path class="st8" d="M920.6,461.1c-3.9,0.1-7.8,0.1-11.7,0.3c0.9,2.1,1.8,4.1,2.7,6.2c3.3,7.4,6.9,14.9,10.5,22.4
			c1.1,2.2,2.1,4.3,3.2,6.5c1.6,3.3,3.3,6.6,5,10c0.8,1.6,1.6,3.2,2.4,4.7l19.7,41.3c0.3,0,0.6-0.1,0.9-0.1c0.7-0.1,1.4-0.1,2.2-0.2
			c13.2-1.2,28.3-1.8,44.4-1.8c9.7,0,19.1,0.2,27.9,0.7c0.7,0.1,1.4,0.1,2.1,0.1c3.2,0.2,6.4,0.4,9.5,0.6l23.3-63.9
			c3.6-7.5,7.1-14.9,10.4-22.3c0.7-1.7,1.5-3.3,2.2-5c0.3-0.8,0.7-1.5,1-2.3L920.6,461.1z"/>
		<linearGradient id="SVGID_10_" gradientUnits="userSpaceOnUse" x1="772.5682" y1="587.4412" x2="1237.5498" y2="587.4412">
			<stop  offset="0" style="stop-color:#B50368"/>
			<stop  offset="1" style="stop-color:#370196"/>
		</linearGradient>
		<path class="st9" d="M1237.5,576.8c0.1,83.3-98.7,133.6-237.4,133.6c-138.8,0-229.6-54.2-227.5-133.6
			c1.1-42.8,34-106.2,138.7-109.4c0.9,2,1.8,3.9,2.7,5.9c3.2,7,6.7,14.2,10.3,21.3c1,2.1,2.1,4.1,3.1,6.2c1.6,3.2,3.2,6.3,4.8,9.5
			c0.8,1.5,1.6,3,2.4,4.5l19.2,39.4c-26.8,2.5-44.7,7.1-44.7,12.3c0,6,23.7,11.1,57.2,13.3c10.5,0.7,21.9,1,33.8,1
			c10,0,19.6-0.3,28.5-0.7c36.3-1.9,62.5-7.3,62.5-13.6c0-5.7-21.5-10.7-52.6-13l22.7-60.9c3.5-7.1,6.9-14.2,10.1-21.2
			c0.7-1.6,1.4-3.2,2.1-4.7c0.3-0.7,0.7-1.5,1-2.2l0.7,0C1177.3,477.3,1237.5,507.2,1237.5,576.8z"/>
		<g>
			<linearGradient id="SVGID_11_" gradientUnits="userSpaceOnUse" x1="991.928" y1="580.3948" x2="991.928" y2="275.9409">
				<stop  offset="0" style="stop-color:#FE9900"/>
				<stop  offset="1" style="stop-color:#ED4536"/>
			</linearGradient>
			<path class="st10" d="M1098.8,382.9c0,9.6-2.9,22.3-7.6,36.9c-0.7,2-1.4,4.1-2.1,6.2c-0.8,2.1-1.5,4.2-2.3,6.4
				c-3.1,8.3-6.7,17.1-10.6,26.1c-0.3,0.8-0.7,1.5-1,2.3c-0.7,1.6-1.5,3.3-2.2,5c-3.3,7.4-6.8,14.8-10.4,22.3l-23.3,63.9l-10.1,27.8
				c-9.2,0.5-19,0.8-29.3,0.8c-12.2,0-23.9-0.4-34.7-1.1l-12.8-26.8l-19.7-41.3c-0.8-1.6-1.6-3.1-2.4-4.7c-1.6-3.3-3.4-6.6-5-10
				c-1.1-2.2-2.1-4.3-3.2-6.5c-3.7-7.5-7.2-15-10.5-22.4c-0.9-2.1-1.8-4.1-2.7-6.2c-4.4-10-8.4-19.8-11.9-29.1
				c-0.8-2.2-1.6-4.3-2.3-6.4c-0.7-2.1-1.4-4.1-2.1-6.2c-4.8-14.5-7.6-27.3-7.6-36.9c0-59,47.8-106.9,106.9-106.9
				C1050.9,275.9,1098.8,323.8,1098.8,382.9z"/>
			<path class="st11" d="M1084.1,415.9c-0.7,2-1.4,4-2.2,6.1c-8,21.6-19.5,46.3-31.6,70.2c-0.4-0.1-0.8-0.2-1.2-0.3
				c13.1-25.8,25.8-52.7,34.5-76.2C1083.7,415.8,1083.9,415.8,1084.1,415.9z"/>
			<ellipse class="st12" cx="1026" cy="361.1" rx="16.1" ry="23.4"/>
			<g>
				<path class="st13" d="M1026,399.1c-14.6,0-26.5-17.1-26.5-38.1s11.9-38.1,26.5-38.1c14.6,0,26.6,17.1,26.6,38.1
					S1040.6,399.1,1026,399.1z M1026,325.1c-13.5,0-24.5,16.1-24.5,36s11,36,24.5,36c13.5,0,24.5-16.1,24.5-36
					S1039.5,325.1,1026,325.1z"/>
			</g>
			<ellipse class="st13" cx="1035.3" cy="364.3" rx="4.4" ry="9.9"/>
			<path class="st13" d="M991.1,324.1c0-4,1.8-7.9,4.3-11c2.6-3.2,6.1-5.5,9.8-7.1c0.9-0.4,1.9-0.8,2.8-1.1l2.9-0.8
				c1-0.3,2-0.4,2.9-0.5c1-0.1,2-0.2,3-0.3c2,0,3.9,0,5.9,0.1c2,0.3,3.9,0.5,5.8,1c-1.9,0.5-3.8,0.8-5.7,1.1
				c-1.9,0.4-3.7,0.8-5.5,1.1c-3.6,0.9-7.2,1.8-10.5,3.3c-3.3,1.4-6.4,3.2-9.1,5.6C995.1,317.7,992.8,320.6,991.1,324.1z"/>
			<g>
				<path class="st14" d="M1056.7,413.4c10.2-8.1,14.5-28.7,26-33.2c11.2-4.3,23.2,12.4,49.9,1.4c28.9-11.9,54.9-36.9,72.7-23.1
					c17.9,13.7,3.9,47.6-15.4,64.4c-23.6,20.6-77.8,27.5-79.1,31.5c-2.1,6.2,12.5,31.3,19.1,53.1c4.5,14.9,6,27.6-3.8,32.6
					c-20.1,10.3-45.3-8.2-62.3-32.1c-20.1-28.3-48.5-39.1-45.7-60.7C1020.5,428.6,1050,418.8,1056.7,413.4z"/>
				<g>
					<path class="st15" d="M1056.7,413.4c10.2-8.1,18.8-19.6,30.3-24c11.2-4.3,22.7,7.4,49.4-3.6c28.9-11.9,52.4-36.6,68.3-25.1
						c18.3,13.2,4.5,45.4-14.8,62.2c-23.6,20.6-77.8,27.5-79.1,31.5c-2.1,6.2,12.5,31.3,19.1,53.1c4.5,14.9,3.4,26.6-7.2,29.8
						c-15.6,4.8-38.1-12-55-35.9c-20.1-28.3-41.2-33.3-38.4-54.9C1031.8,427.7,1050,418.8,1056.7,413.4z"/>
					<path class="st16" d="M1127,413.7c20.5-18.7,64-49.9,72.7-38.2c8.7,11.7-4.9,37.7-25.1,49.6c-31.2,18.3-69.3,21.4-70.8,26.6
						c-1.5,5.2,30.5,74.3,16,79.1c-14.4,4.8-38.5-10.6-46.3-29.9c-7.9-19.4-14.9-50-30.1-58.5C1076.5,445.1,1106.5,432.4,1127,413.7
						z"/>
					<path class="st17" d="M1081.4,438.8c17.7-4.9,33.3-13.9,45.6-25.1c20.5-18.7,64-49.9,72.7-38.2c8.7,11.7-4.9,37.7-25.1,49.6
						c-31.2,18.3-69.3,21.4-70.8,26.6c-1.5,5.2,30.5,74.3,16,79.1c-14.4,4.8-38.5-10.6-46.3-29.9c-2-5-4-10.6-6-16.5
						C1101.4,489.3,1091.2,448.8,1081.4,438.8z"/>
					<path class="st18" d="M1126.8,413.4c19.4-17.7,54.7-42.9,68.7-40.7c2,0.3,3.5,1.2,4.5,2.5c2.6,3.5,3.4,8.5,2.2,14.5
						c-2.7,13.1-13.9,27.7-27.3,35.6c-18.4,10.8-39.6,16.4-53.5,20.1c-9.2,2.4-16.5,4.4-17.1,6.3c-0.4,1.5,2.5,9.8,6,19.5
						c7.2,20.3,17.2,48.2,12.8,57.2c-0.7,1.4-1.6,2.3-2.9,2.7c-2.9,1-6.3,1.1-10,0.6c0,0,0,0,0,0c-14.6-2.3-30.8-15.8-36.8-30.7
						c-1.8-4.5-3.6-9.5-5.4-14.8c-6.1-17.4-13-37-24.5-43.6l-1.4-0.8l1.6,0.1C1073.7,444.5,1104.1,434.1,1126.8,413.4z
						 M1068.4,485.9c1.9,5.3,3.6,10.3,5.4,14.8c6,14.7,21.9,28,36.3,30.3c3.6,0.6,6.8,0.4,9.6-0.5c1.1-0.4,1.9-1.1,2.5-2.3
						c4.3-8.7-6-37.6-12.8-56.6c-4.1-11.6-6.4-18.2-6-19.9c0.7-2.3,7-4,17.6-6.8c14-3.7,35-9.3,53.4-20c13.3-7.8,24.4-22.2,27-35.1
						c1.2-5.7,0.5-10.5-2-13.9c-0.9-1.2-2.3-2-4.1-2.3c-13.1-2.1-48,22.2-68.1,40.5c-22.5,20.5-52.4,30.9-82.4,28.8
						C1055.8,450.1,1062.5,469.1,1068.4,485.9z"/>
				</g>
			</g>
		</g>
	</g>
</g>
</svg>
