<svg id="Layer_1" data-name="Layer 1" xmlns="http://www.w3.org/2000/svg" xmlns:xlink="http://www.w3.org/1999/xlink" viewBox="0 0 1609.34 706.58"><defs><style>.cls-1{fill:url(#linear-gradient);}.cls-2{fill:url(#linear-gradient-2);}.cls-3{fill:url(#linear-gradient-3);}.cls-4{fill:url(#linear-gradient-4);}.cls-5{fill:url(#linear-gradient-5);}.cls-6{fill:url(#linear-gradient-6);}.cls-7{fill:url(#linear-gradient-7);}.cls-8{fill:url(#linear-gradient-8);}.cls-9{fill:url(#linear-gradient-9);}.cls-10{fill:url(#linear-gradient-10);}.cls-11{fill:url(#linear-gradient-11);}.cls-12{fill:#2a0303;}.cls-13{fill:#fff;}.cls-14{fill:#ef7500;}.cls-15{fill:#fe9900;}.cls-16{fill:#400;}.cls-17{fill:#680000;}.cls-18{fill:#c33100;}</style><linearGradient id="linear-gradient" x1="862.56" y1="532.84" x2="866.48" y2="366.4" gradientTransform="matrix(1, 0, 0, -1, 0, 1082)" gradientUnits="userSpaceOnUse"><stop offset="0" stop-color="#b50368"/><stop offset="1" stop-color="#370196"/></linearGradient><linearGradient id="linear-gradient-2" x1="1088.13" y1="538.14" x2="1092.05" y2="371.7" xlink:href="#linear-gradient"/><linearGradient id="linear-gradient-3" x1="1295.3" y1="543.02" x2="1299.21" y2="376.58" xlink:href="#linear-gradient"/><linearGradient id="linear-gradient-4" x1="1496.07" y1="547.74" x2="1499.98" y2="381.3" xlink:href="#linear-gradient"/><linearGradient id="linear-gradient-5" x1="1678.77" y1="552.04" x2="1682.68" y2="385.6" xlink:href="#linear-gradient"/><linearGradient id="linear-gradient-6" x1="417.03" y1="218.59" x2="254.38" y2="373.2" gradientTransform="matrix(1, 0, 0, -1, 0, 1082)" gradientUnits="userSpaceOnUse"><stop offset="0" stop-color="#fe9900"/><stop offset="1" stop-color="#ed4536"/></linearGradient><linearGradient id="linear-gradient-7" x1="500.57" y1="282.97" x2="337.93" y2="437.59" xlink:href="#linear-gradient-6"/><linearGradient id="linear-gradient-8" x1="276.75" y1="408.35" x2="479.55" y2="408.35" xlink:href="#linear-gradient-6"/><linearGradient id="linear-gradient-9" x1="292.65" y1="666.75" x2="460.05" y2="666.75" xlink:href="#linear-gradient"/><linearGradient id="linear-gradient-10" x1="156.31" y1="584.7" x2="621.25" y2="584.7" xlink:href="#linear-gradient"/><linearGradient id="linear-gradient-11" x1="375.65" y1="591.55" x2="375.65" y2="896.05" xlink:href="#linear-gradient-6"/></defs><path class="cls-1" d="M923,719.6a119.61,119.61,0,0,1-27.5,12.3,110.31,110.31,0,0,1-31.4,4.4c-17,0-32.4-3.4-46.3-10.1a118.35,118.35,0,0,1-35.7-26.5,121.9,121.9,0,0,1-31.3-81.1,116.45,116.45,0,0,1,8.7-44.5,121.68,121.68,0,0,1,23.9-37.6,112.76,112.76,0,0,1,36.2-26,108,108,0,0,1,45.5-9.7c16.8,0,32.1,3.4,46,10.3a116.1,116.1,0,0,1,35.5,27,125.91,125.91,0,0,1,22.9,37.9,120.79,120.79,0,0,1,8.2,43.2,119.51,119.51,0,0,1-8,43.2,117.1,117.1,0,0,1-22.4,36.6L979,734.7h-42.5Zm-58.6-23.2a62.13,62.13,0,0,0,16.5-2.1,63.86,63.86,0,0,0,14.2-5.7l-35.3-39.9h42.5l16,18a89.11,89.11,0,0,0,10.1-22.9,90.29,90.29,0,0,0,3.6-25.2,92.36,92.36,0,0,0-4.7-29.1,80.58,80.58,0,0,0-13.4-24.9,65.25,65.25,0,0,0-21.3-17.3c-8.4-4.4-17.8-6.5-28.3-6.5-10.9,0-20.6,2.2-29.1,6.7a64.63,64.63,0,0,0-21.3,17.8,80.23,80.23,0,0,0-12.9,25,94.45,94.45,0,0,0-4.4,28.3,92.27,92.27,0,0,0,4.6,29.1,80.16,80.16,0,0,0,13.2,24.9,65.25,65.25,0,0,0,21.3,17.3A62.5,62.5,0,0,0,864.35,696.4Z" transform="translate(-156.31 -185.95)"/><path class="cls-2" d="M1060,738c-17.7,0-31.1-5.7-40.2-17s-13.7-28.1-13.7-50.4V563.3h43.8v97.8q0,39.6,28.5,39.6c8.5,0,16.7-2.6,24.7-7.7s14.4-12.9,19.5-23.4V563.3h43.8v121c0,4.6.8,7.9,2.5,9.8s4.3,3.1,8,3.3v37.3a83.1,83.1,0,0,1-11,1.6c-2.9.2-5.6.3-8,.3-7.9,0-14.2-1.8-19.1-5.4a21.51,21.51,0,0,1-8.7-14.9l-1-13.7a73.26,73.26,0,0,1-29.4,26.5A89.29,89.29,0,0,1,1060,738Z" transform="translate(-156.31 -185.95)"/><path class="cls-3" d="M1280.15,502.4h39.9l88.3,232.3h-46.5l-21.6-57.9h-81L1238,734.7h-46.5Zm52,142.6-32.1-91.3-33.4,91.3Z" transform="translate(-156.31 -185.95)"/><path class="cls-4" d="M1414.35,649a94.1,94.1,0,0,1,6.2-34,80.59,80.59,0,0,1,18-28.1,87,87,0,0,1,28.5-19.3c11.1-4.8,23.7-7.2,37.6-7.2,18.8,0,34.7,4,47.9,12.1s23.1,18.6,29.6,31.7l-42.9,13.1a38.86,38.86,0,0,0-14.7-14.6,41.07,41.07,0,0,0-20.3-5.1,42.37,42.37,0,0,0-31.9,14.3,49.87,49.87,0,0,0-9.5,16.2,60.69,60.69,0,0,0-3.4,20.9,58.41,58.41,0,0,0,3.6,20.9,52.38,52.38,0,0,0,9.7,16.4,42,42,0,0,0,14.2,10.6,40.83,40.83,0,0,0,17.3,3.8,42.45,42.45,0,0,0,21.8-5.9c6.7-3.9,11.3-8.7,13.9-14.4l42.9,13.1q-8.85,19.65-29.1,32.1c-13.5,8.3-29.8,12.4-48.7,12.4-14,0-26.5-2.4-37.6-7.2a85.5,85.5,0,0,1-46.7-48A90.63,90.63,0,0,1,1414.35,649Z" transform="translate(-156.31 -185.95)"/><path class="cls-5" d="M1597.15,649a94.1,94.1,0,0,1,6.2-34,80.59,80.59,0,0,1,18-28.1,87,87,0,0,1,28.5-19.3c11.1-4.8,23.7-7.2,37.6-7.2,18.8,0,34.7,4,47.9,12.1s23.1,18.6,29.6,31.7l-42.9,13.1a38.86,38.86,0,0,0-14.7-14.6,41.07,41.07,0,0,0-20.3-5.1,42.37,42.37,0,0,0-31.9,14.3,49.87,49.87,0,0,0-9.5,16.2,60.69,60.69,0,0,0-3.4,20.9,58.41,58.41,0,0,0,3.6,20.9,52.38,52.38,0,0,0,9.7,16.4,42,42,0,0,0,14.2,10.6,40.83,40.83,0,0,0,17.3,3.8,42.45,42.45,0,0,0,21.8-5.9c6.7-3.9,11.3-8.7,13.9-14.4l42.9,13.1q-8.85,19.65-29.1,32.1c-13.5,8.3-29.8,12.4-48.7,12.4-14,0-26.5-2.4-37.6-7.2a85.5,85.5,0,0,1-46.7-48A92.67,92.67,0,0,1,1597.15,649Z" transform="translate(-156.31 -185.95)"/><path class="cls-6" d="M427.65,825.75c-4.2-3.7-12.2-6.6-22.1-9.4a2.26,2.26,0,0,1,.7-.2,4,4,0,0,0-2.2-.2H404c-6.2-1.7-13.1-3.3-20.3-5h0a4,4,0,0,0-1.2-.3l-1.3-.3c-1.8-.5-3.6-.9-5.5-1.3-.6-.1-1.2-.3-1.9-.4a18.92,18.92,0,0,0-2.3-.5c-7.2-1.7-15.2-3.5-22.9-5.4h0c-17.9-4.4-34.6-9.5-38.9-16.6a41.21,41.21,0,0,1-3.6-7.7v-.1c-.2-.5-.3-1-.5-1.5,0-.2-.1-.3-.1-.5-.1-.4-.2-.9-.3-1.3s-.1-.5-.2-.8a5,5,0,0,1-.2-1.2c-.1-.3-.1-.6-.2-.9-.1-.5-.1-.9-.2-1.4,0-.3-.1-.5-.1-.8-.6-6,0-42.2,1.6-51.2l2.3-38.4c0-.1.1-.3.1-.4l.6-2.1c0-.1,0-.1.1-.2a76.33,76.33,0,0,1,3.9-10.3v-.1a9.29,9.29,0,0,1,.5-1c0-.1.1-.1.1-.2a5.94,5.94,0,0,1,.4-.8c0-.1.1-.1.1-.2l.3-.6c0-.1.1-.1.1-.2s.2-.3.3-.5.1-.1.1-.2.1-.2.2-.3a.1.1,0,0,1,.1-.1c0-.1.1-.1.1-.2a.1.1,0,0,1,.1-.1s-.6-4.4-.8-7c0,0-5.6,6.6-7,11a82,82,0,0,1-8-12.3s-3.6,8-5.5,10.3-3-9.9-3-9.9-5.5,7-9.5,11.4c0,0,1,65.7,2.6,88.1.9,11.8,2.9,15.1-1.4,20.9l-.9,1.2h0c-3.8,5-8,10.4-5.8,15.2h0l.6,1.2s-13.2,4.2-16.6,9.7-3.3,8.6-.6,8.1,10.2-1.4,9.9,8.2c-.2,7.4.7,14.4,8.3,21.9h0a57.74,57.74,0,0,0,9.1,7.2c9.9,6.4,23.4,14.5,35,22.1h0a182.28,182.28,0,0,1,18,13c1.9,1.6,3.7,3.1,5.4,4.3h0c9.4,6.7,16.2,7.4,13.4-1.7,0,0,8.1-25.8,38.3-23.6,0,0,5.5,5,10.8,4.3s.4-7.9.4-7.9,5.6-17,21.6-16.3c0,0,3.5,2.9,7.4,1.9C441.05,843.05,436.15,833.15,427.65,825.75Z" transform="translate(-156.31 -185.95)"/><path class="cls-7" d="M456.05,728.45a67.54,67.54,0,0,1-9.1,6.7c-1.1.6-1.2-6.7-1.2-6.7s-5.2,3.7-8.3,5.8c-1.7,1.2-1.9-3.3-1.9-3.3a13.47,13.47,0,0,0-2.3,1.9s-.1,1.5-.1,4h0c-.2,6.3-.7,18.7-1.2,25-.6,8.6-3.6,14.7-9.8,18.4s-3.7,10.2-3.7,10.2-11.1,4.8-11.4,10.9,5.3,2.6,12.1,3.4a8,8,0,0,1,1.5.3h0a67.71,67.71,0,0,1,10.2,3.6h0c7.5,3.2,17.9,8.1,32.7,14.4,7.7,3.3,15.2,6.1,22.1,8.7v.7a3.22,3.22,0,0,0,.2-.6c10.1,3.7,19.2,6.6,26.2,9v.2a.31.31,0,0,1,.1-.2c3.7,1.3,6.8,2.4,9.2,3.5,10.1,4.5,12.1,8.4,17.7,6.5s-1.6-9.8-1.6-9.8,9.4-21.9,35.1-24c0,0,10.8,6.3,14.4,4.2s-1.3-10.9-8-13.8h-.1c-.1,0-.2-.1-.3-.1s.9-6.8,6.9-9.8c0,0,5.8.7,7.3-2.7a.6.6,0,0,0,.1-.4v-.6c0-.2-.1-.3-.2-.5a.1.1,0,0,0-.1-.1c-.1-.1-.2-.3-.3-.4l-.1-.1a2.65,2.65,0,0,0-.5-.6l-.1-.1-.5-.5-.2-.2a5.55,5.55,0,0,0-.8-.6h0l-.9-.6c-.1-.1-.2-.1-.3-.2a4.05,4.05,0,0,0-.9-.5.35.35,0,0,1-.2-.1l-1.2-.6c-.2-.1-.3-.2-.5-.2s-.6-.3-.9-.4l-.6-.3c-.4-.2-.9-.4-1.3-.6l-.9-.3c-.2-.1-.5-.2-.7-.3s-.7-.3-1.1-.4c-.1-.1-.3-.1-.4-.2l-2.7-.9h0c-1-.3-2.1-.6-3.3-1a3.93,3.93,0,0,1,.6.2,163.38,163.38,0,0,0-21.1-4c-19.7-2.4-46.6-2.8-65-2.8a1.45,1.45,0,0,0-.1-.6v.6c-8.5,0-15.2.2-18.5.3-10.5.4-10.9-2.7-19-3.3a85.72,85.72,0,0,1,1.8-23.6c.1-.4.2-.9.3-1.3a6.37,6.37,0,0,0,.2-.7c.1-.4.2-.9.3-1.3.1-.2.1-.5.2-.7.1-.4.3-.9.4-1.3.1-.2.1-.4.2-.6.2-.6.4-1.2.6-1.9.1-.2.2-.5.3-.7.1-.4.3-.8.4-1.2a3.55,3.55,0,0,1,.4-.9c.1-.3.3-.7.4-1s.3-.6.4-.9.3-.7.5-1.1.3-.5.4-.8a16.18,16.18,0,0,1,1-1.8l-.7-13.4" transform="translate(-156.31 -185.95)"/><path class="cls-8" d="M446.35,574.55a438.92,438.92,0,0,1-68.3,5.3,427,427,0,0,1-68.3-5.3c-18.3,38.1-33,75.6-33,97a100.31,100.31,0,0,0,48.8,86.4h.1a100.93,100.93,0,0,0,50.4,14.8h4a101.6,101.6,0,0,0,46.7-12.6l.3-.2a99.93,99.93,0,0,0,52.5-88.5C479.35,650.15,464.65,612.65,446.35,574.55Z" transform="translate(-156.31 -185.95)"/><path class="cls-9" d="M304.35,371c-3.9.1-7.8.1-11.7.3.9,2.1,1.8,4.1,2.7,6.2,3.3,7.4,6.9,14.9,10.5,22.4,1.1,2.2,2.1,4.3,3.2,6.5,1.6,3.3,3.3,6.6,5,10,.8,1.6,1.6,3.2,2.4,4.7l19.7,41.3c.3,0,.6-.1.9-.1.7-.1,1.4-.1,2.2-.2,13.2-1.2,28.3-1.8,44.4-1.8,9.7,0,19.1.2,27.9.7a14.77,14.77,0,0,0,2.1.1l9.5.6,23.3-63.9c3.6-7.5,7.1-14.9,10.4-22.3.7-1.7,1.5-3.3,2.2-5,.3-.8.7-1.5,1-2.3Z" transform="translate(-156.31 -185.95)"/><path class="cls-10" d="M621.25,486.65c.1,83.3-98.7,133.6-237.4,133.6s-229.6-54.2-227.5-133.6c1.1-42.8,34-106.2,138.7-109.4.9,2,1.8,3.9,2.7,5.9,3.2,7,6.7,14.2,10.3,21.3,1,2.1,2.1,4.1,3.1,6.2,1.6,3.2,3.2,6.3,4.8,9.5l2.4,4.5,19.2,39.4c-26.8,2.5-44.7,7.1-44.7,12.3,0,6,23.7,11.1,57.2,13.3,10.5.7,21.9,1,33.8,1,10,0,19.6-.3,28.5-.7,36.3-1.9,62.5-7.3,62.5-13.6,0-5.7-21.5-10.7-52.6-13l22.7-60.9c3.5-7.1,6.9-14.2,10.1-21.2.7-1.6,1.4-3.2,2.1-4.7.3-.7.7-1.5,1-2.2h.7C561.05,387.15,621.25,417.05,621.25,486.65Z" transform="translate(-156.31 -185.95)"/><path class="cls-11" d="M482.55,292.75c0,9.6-2.9,22.3-7.6,36.9-.7,2-1.4,4.1-2.1,6.2s-1.5,4.2-2.3,6.4c-3.1,8.3-6.7,17.1-10.6,26.1-.3.8-.7,1.5-1,2.3-.7,1.6-1.5,3.3-2.2,5-3.3,7.4-6.8,14.8-10.4,22.3l-23.3,63.9L413,489.65c-9.2.5-19,.8-29.3.8-12.2,0-23.9-.4-34.7-1.1l-12.8-26.8-19.7-41.3c-.8-1.6-1.6-3.1-2.4-4.7-1.6-3.3-3.4-6.6-5-10-1.1-2.2-2.1-4.3-3.2-6.5-3.7-7.5-7.2-15-10.5-22.4-.9-2.1-1.8-4.1-2.7-6.2-4.4-10-8.4-19.8-11.9-29.1-.8-2.2-1.6-4.3-2.3-6.4s-1.4-4.1-2.1-6.2c-4.8-14.5-7.6-27.3-7.6-36.9A106.89,106.89,0,0,1,375.65,186C434.65,185.75,482.55,233.65,482.55,292.75Z" transform="translate(-156.31 -185.95)"/><ellipse class="cls-12" cx="253.44" cy="85" rx="16.1" ry="23.4"/><path class="cls-13" d="M409.75,309c-14.6,0-26.5-17.1-26.5-38.1s11.9-38.1,26.5-38.1,26.6,17.1,26.6,38.1S424.35,309,409.75,309Zm0-74c-13.5,0-24.5,16.1-24.5,36s11,36,24.5,36,24.5-16.1,24.5-36S423.25,235,409.75,235Z" transform="translate(-156.31 -185.95)"/><ellipse class="cls-13" cx="262.74" cy="88.2" rx="4.4" ry="9.9"/><path class="cls-13" d="M374.85,234a18,18,0,0,1,4.3-11,25.51,25.51,0,0,1,9.8-7.1c.9-.4,1.9-.8,2.8-1.1l2.9-.8a16,16,0,0,1,2.9-.5l3-.3c2,0,3.9,0,5.9.1a54,54,0,0,1,5.8,1,57.24,57.24,0,0,1-5.7,1.1c-1.9.4-3.7.8-5.5,1.1a61.09,61.09,0,0,0-10.5,3.3,32.85,32.85,0,0,0-9.1,5.6A26.27,26.27,0,0,0,374.85,234Z" transform="translate(-156.31 -185.95)"/><path class="cls-14" d="M440.45,323.25c10.2-8.1,14.5-28.7,26-33.2,11.2-4.3,23.2,12.4,49.9,1.4,28.9-11.9,54.9-36.9,72.7-23.1s3.9,47.6-15.4,64.4c-23.6,20.6-77.8,27.5-79.1,31.5-2.1,6.2,12.5,31.3,19.1,53.1,4.5,14.9,6,27.6-3.8,32.6-20.1,10.3-45.3-8.2-62.3-32.1-20.1-28.3-48.5-39.1-45.7-60.7C404.25,338.45,433.75,328.65,440.45,323.25Z" transform="translate(-156.31 -185.95)"/><path class="cls-15" d="M440.45,323.25c10.2-8.1,18.8-19.6,30.3-24,11.2-4.3,22.7,7.4,49.4-3.6,28.9-11.9,52.4-36.6,68.3-25.1,18.3,13.2,4.5,45.4-14.8,62.2-23.6,20.6-77.8,27.5-79.1,31.5-2.1,6.2,12.5,31.3,19.1,53.1,4.5,14.9,3.4,26.6-7.2,29.8-15.6,4.8-38.1-12-55-35.9-20.1-28.3-41.2-33.3-38.4-54.9C415.55,337.55,433.75,328.65,440.45,323.25Z" transform="translate(-156.31 -185.95)"/><path class="cls-16" d="M510.75,323.55c20.5-18.7,64-49.9,72.7-38.2s-4.9,37.7-25.1,49.6c-31.2,18.3-69.3,21.4-70.8,26.6s30.5,74.3,16,79.1-38.5-10.6-46.3-29.9-14.9-50-30.1-58.5A111.42,111.42,0,0,0,510.75,323.55Z" transform="translate(-156.31 -185.95)"/><path class="cls-17" d="M465.15,348.65a112.64,112.64,0,0,0,45.6-25.1c20.5-18.7,64-49.9,72.7-38.2s-4.9,37.7-25.1,49.6c-31.2,18.3-69.3,21.4-70.8,26.6s30.5,74.3,16,79.1-38.5-10.6-46.3-29.9c-2-5-4-10.6-6-16.5C485.15,399.15,475,358.65,465.15,348.65Z" transform="translate(-156.31 -185.95)"/><path class="cls-18" d="M510.55,323.25c19.4-17.7,54.7-42.9,68.7-40.7a6.73,6.73,0,0,1,4.5,2.5c2.6,3.5,3.4,8.5,2.2,14.5-2.7,13.1-13.9,27.7-27.3,35.6-18.4,10.8-39.6,16.4-53.5,20.1-9.2,2.4-16.5,4.4-17.1,6.3-.4,1.5,2.5,9.8,6,19.5,7.2,20.3,17.2,48.2,12.8,57.2A4.79,4.79,0,0,1,504,441a21.88,21.88,0,0,1-10,.6h0c-14.6-2.3-30.8-15.8-36.8-30.7-1.8-4.5-3.6-9.5-5.4-14.8-6.1-17.4-13-37-24.5-43.6l-1.4-.8,1.6.1A110,110,0,0,0,510.55,323.25Zm-58.4,72.5c1.9,5.3,3.6,10.3,5.4,14.8,6,14.7,21.9,28,36.3,30.3a20.23,20.23,0,0,0,9.6-.5,4.32,4.32,0,0,0,2.5-2.3c4.3-8.7-6-37.6-12.8-56.6-4.1-11.6-6.4-18.2-6-19.9.7-2.3,7-4,17.6-6.8,14-3.7,35-9.3,53.4-20,13.3-7.8,24.4-22.2,27-35.1,1.2-5.7.5-10.5-2-13.9a6.23,6.23,0,0,0-4.1-2.3c-13.1-2.1-48,22.2-68.1,40.5a111.13,111.13,0,0,1-82.4,28.8C439.55,360,446.25,379,452.15,395.75Z" transform="translate(-156.31 -185.95)"/></svg>